<?xml version="1.0" encoding="utf-8"?>
<!-- Generator: Adobe Illustrator 21.0.2, SVG Export Plug-In . SVG Version: 6.00 Build 0)  -->
<svg version="1.1" id="Capa_1" xmlns="http://www.w3.org/2000/svg" xmlns:xlink="http://www.w3.org/1999/xlink" x="0px" y="0px"
	 viewBox="0 0 95 95" style="enable-background:new 0 0 95 95;" xml:space="preserve">
<g id="LbW2xb_1_">
	<g>
		<path d="M48.7,95c-12.7,0-22.8-3.9-31.7-10.8c-2.7-2.1-3.2-4.8-1.6-8.8c2.5-6.4,6.5-11.8,10.8-17c6-7.2,12.6-13.8,20-19.6
			c1-0.8,1.5-0.7,2.5,0c8,6.2,15,13.4,21.4,21.3c3.5,4.3,6.6,8.8,8.9,13.8c0.6,1.3,1.1,2.7,1.4,4.2c0.4,2.1,0,4-1.7,5.5
			c-5.7,5-12.3,8.4-19.7,10.1C55,94.5,51.2,95.1,48.7,95z"/>
		<path d="M85,76.3c-0.6-1.3,0.2-2.3,0.2-3.5c0-3.9-1.2-7.4-2.6-10.9c-4.7-11.4-11.4-21.6-18.8-31.4c-0.9-1.2-1.9-2.4-2.8-3.6
			c-0.6-0.7-0.6-1.3,0.1-1.9c3.8-3.6,7.6-7.2,12.1-10c2.3-1.4,4.9-1.4,7.4-1.4c0.7,0,1,0.5,1.3,0.9c8.1,8.8,12.7,19,13.2,31.1
			c0.4,10.8-2.4,20.6-8.5,29.4C86.2,75.4,85.9,76.1,85,76.3z"/>
		<path d="M9.2,75.4C5,69.8,2.4,64,1,57.7C0.2,53.9-0.3,50-0.1,46.1c0.4-9.4,3.3-18,8.7-25.7c0.9-1.3,2-2.6,3-3.9
			c1.8-2.4,4.7-3.1,7.5-1.9c4.6,2,8,5.4,11.5,8.8c1,1,2.8,1.9,2.8,3.2c0,1.2-1.6,2.3-2.4,3.5C24.4,39,18,48,13.5,58.1
			c-2,4.4-4.2,8.8-4.3,13.8C9.2,72.9,9.2,73.9,9.2,75.4z"/>
		<path d="M47.7,0c8.2-0.2,16,2.1,23.3,6.2c0.5,0.3,1.4,0.5,1.1,1.2c-0.3,0.8-1,0.3-1.6,0.2c-4-0.7-7.7,0.6-11.4,1.7
			c-3.6,1.1-7,2.7-10.3,4.5c-1.1,0.6-2,0.5-3.1,0c-4.5-2.4-9.1-4.6-14.2-5.6c-2.5-0.5-5.1-1.4-7.7-0.5c-0.4,0.1-0.9,0.4-1.1-0.1
			c-0.3-0.6,0.2-0.8,0.6-1.1c3.7-2.2,7.6-3.9,11.7-5C39.1,0.4,43.2-0.1,47.7,0z"/>
	</g>
</g>
</svg>
